<svg width="73" height="70" viewBox="0 0 73 70" fill="none" xmlns="http://www.w3.org/2000/svg">
<circle cx="36.735" cy="34.735" r="33.735" stroke="white" stroke-width="2"/>
<path d="M43.5257 34.9103L37.6825 30.1946L38.739 20.4135C38.8026 19.8208 38.4573 19.2613 37.9088 19.0686C37.3595 18.8758 36.7532 19.1 36.4501 19.6086L28.1825 33.4847C27.8562 34.0324 27.9777 34.7431 28.465 35.1438L34.1224 39.7975L33.0651 49.5855C33.0015 50.1756 33.3426 50.7325 33.8878 50.9287C34.0224 50.9771 34.1604 51 34.2967 51C34.713 51 35.1128 50.7835 35.3457 50.4048L43.8099 36.5906C44.1477 36.0387 44.0246 35.3128 43.5257 34.9103ZM36.1238 44.3553L36.6607 39.3823C36.7078 38.9484 36.5352 38.5197 36.2031 38.248L30.8662 33.8575L35.6629 25.8084L35.1425 30.62C35.0954 31.0581 35.2714 31.4903 35.6092 31.762L41.1162 36.206L36.1238 44.3553Z" fill="white"/>
</svg>
