<svg width="73" height="70" viewBox="0 0 73 70" fill="none" xmlns="http://www.w3.org/2000/svg">
<circle cx="36.4503" cy="34.735" r="33.735" stroke="white" stroke-width="2"/>
<path d="M36.9489 16.3813C36.4135 15.8729 35.5798 15.8729 35.0443 16.3813C34.5563 16.8489 23 27.8969 23 35.3187C23 42.9777 28.829 49.2134 36 49.2134C43.1642 49.2134 49 42.9777 49 35.3187C49 27.8969 37.4437 16.8489 36.9489 16.3813ZM36 46.448C30.3608 46.448 25.7722 41.4527 25.7722 35.3187C25.7722 30.6081 32.4552 22.9016 36 19.3229C39.5448 22.9016 46.2278 30.6081 46.2278 35.3187C46.2278 41.4527 41.6392 46.448 36 46.448Z" fill="white"/>
<path d="M30.7268 35.0275C30.7404 34.2684 30.1439 33.638 29.378 33.6177C29.3644 33.6177 29.3509 33.6177 29.3441 33.6177C28.5985 33.6177 27.9818 34.2141 27.9614 34.9665C27.9546 35.1224 27.8665 38.8841 30.842 42.0019C31.5063 42.7001 32.5297 42.3137 32.8008 42.0629C33.3566 41.541 33.3837 40.6667 32.8618 40.1041C30.72 37.8335 30.7268 35.0885 30.7268 35.0275Z" fill="white"/>
</svg>
