<svg width="71" height="71" viewBox="0 0 71 71" fill="none" xmlns="http://www.w3.org/2000/svg">
<circle cx="35.4503" cy="35.5002" r="33.735" stroke="white" stroke-width="2"/>
<path d="M46.5134 25.636L26.6463 30.928V47.3325C26.6463 50.0982 24.4052 52.35 21.6468 52.35C18.8898 52.35 16.65 50.098 16.65 47.3325C16.65 44.5664 18.8897 42.3135 21.6468 42.3135C22.8479 42.3135 23.9486 42.7426 24.8097 43.4527V25.6395C24.8097 25.2272 25.0832 24.8636 25.4814 24.7526L46.5134 25.636ZM46.5134 25.636V37.3369C45.6523 36.6266 44.5513 36.1973 43.3502 36.1973C40.5921 36.1973 38.3511 38.4495 38.3511 41.2155C38.3511 43.9819 40.5921 46.2341 43.3502 46.2341C46.0963 46.2341 48.3291 44.0013 48.3484 41.2517C48.3492 41.2428 48.35 41.2308 48.35 41.2167V19.5709C48.35 19.2834 48.2159 19.0122 47.9876 18.8382M46.5134 25.636L25.4817 24.7525L47.1833 18.6847C47.1835 18.6846 47.1838 18.6846 47.1841 18.6845C47.4624 18.6056 47.7597 18.6641 47.9876 18.8382M47.9876 18.8382C47.9876 18.8382 47.9875 18.8382 47.9875 18.8381L47.7753 19.1165L47.988 18.8385C47.9878 18.8384 47.9877 18.8383 47.9876 18.8382ZM21.6468 50.5083C19.9059 50.5083 18.4866 49.0849 18.4866 47.3325C18.4866 45.5796 19.9061 44.1552 21.6468 44.1552C23.3893 44.1552 24.8097 45.5795 24.8097 47.3325C24.8097 49.0843 23.3894 50.5083 21.6468 50.5083ZM46.5134 23.73L26.6463 29.0223V26.3386L46.5134 20.7834V23.73ZM43.3502 44.3917C41.6084 44.3917 40.1877 42.9678 40.1877 41.2148C40.1877 39.4625 41.6081 38.0382 43.3502 38.0382C45.0923 38.0382 46.5126 39.4621 46.5126 41.2148C46.5126 42.9678 45.0923 44.3917 43.3502 44.3917Z" fill="white" stroke="white" stroke-width="0.7"/>
</svg>
