<svg width="12" height="12" viewBox="0 0 12 12" fill="none" xmlns="http://www.w3.org/2000/svg">
<path d="M7.29492 5.60742L11.0918 1.8457C11.3027 1.63477 11.3027 1.24805 11.0918 1.03711L10.2129 0.158203C10.002 -0.0527344 9.61523 -0.0527344 9.4043 0.158203L5.64258 3.95508L1.8457 0.158203C1.63477 -0.0527344 1.24805 -0.0527344 1.03711 0.158203L0.158203 1.03711C-0.0527344 1.24805 -0.0527344 1.63477 0.158203 1.8457L3.95508 5.60742L0.158203 9.4043C-0.0527344 9.61523 -0.0527344 10.002 0.158203 10.2129L1.03711 11.0918C1.24805 11.3027 1.63477 11.3027 1.8457 11.0918L5.64258 7.29492L9.4043 11.0918C9.61523 11.3027 10.002 11.3027 10.2129 11.0918L11.0918 10.2129C11.3027 10.002 11.3027 9.61523 11.0918 9.4043L7.29492 5.60742Z" fill="white"/>
</svg>
