<svg width="132" height="133" viewBox="0 0 132 133" fill="none" xmlns="http://www.w3.org/2000/svg">
<path fill-rule="evenodd" clip-rule="evenodd" d="M40 62.0401L49.0401 53L66.0582 70.0181L83.0762 53L92.1163 62.0401L66.1676 87.9889L66.0582 87.8794L65.9487 87.9889L40 62.0401Z" fill="#C9EF5D"/>
<path d="M5.39345 59.4786L15.7913 60.2203L15.657 62.1037L6.90707 61.4795L6.48863 67.3455L15.2386 67.9697L15.1042 69.8531L4.70631 69.1113L5.39345 59.4786Z" fill="white"/>
<path d="M19.4037 47.657C18.9769 48.6021 18.3834 49.3581 17.6233 49.9251C16.8632 50.4921 16.02 50.8283 15.0939 50.9337C14.1612 51.0219 13.2271 50.858 12.2916 50.4422C11.3561 50.0263 10.617 49.4464 10.0745 48.7026C9.52535 47.9414 9.21706 47.0934 9.14962 46.1585C9.07018 45.2183 9.24386 44.2757 9.67064 43.3307C10.0974 42.3857 10.6882 41.6356 11.4429 41.0806C12.1911 40.5082 13.0315 40.178 13.9642 40.0899C14.8903 39.9844 15.8211 40.1397 16.7566 40.5555C17.6922 40.9713 18.4345 41.5599 18.9836 42.321C19.5262 43.0649 19.8372 43.907 19.9166 44.8472C20.0015 45.7754 19.8305 46.712 19.4037 47.657ZM17.8925 46.9853C18.168 46.3752 18.2759 45.7696 18.2161 45.1685C18.1497 44.5501 17.9268 43.9914 17.5473 43.4924C17.1558 42.988 16.6303 42.5892 15.9706 42.296C15.3109 42.0028 14.6671 41.8817 14.0391 41.933C13.3991 41.9788 12.8304 42.1857 12.3331 42.5535C11.8411 42.9094 11.4574 43.3923 11.1819 44.0024C10.9064 44.6125 10.7958 45.224 10.8501 45.8371C10.9099 46.4382 11.1328 46.9969 11.5189 47.5133C11.8984 48.0123 12.418 48.4084 13.0776 48.7017C13.7373 48.9949 14.3871 49.1186 15.0271 49.0727C15.6605 49.0095 16.2292 48.8027 16.7331 48.4521C17.2305 48.0843 17.6169 47.5954 17.8925 46.9853Z" fill="white"/>
<path d="M28.7019 32.9744C27.9786 33.7522 27.1632 34.2921 26.2556 34.5941C25.357 34.8865 24.4541 34.9332 23.5469 34.7342C22.6301 34.5263 21.7973 34.0741 21.0483 33.3776C20.2993 32.6811 19.7927 31.8877 19.5284 30.9973C19.2545 30.098 19.2356 29.1941 19.4717 28.2856C19.7071 27.3585 20.1864 26.5061 20.9097 25.7283C21.5526 25.0369 22.2633 24.5519 23.0418 24.2731C23.8292 23.9847 24.6254 23.9373 25.4303 24.1307L25.1295 25.8116C24.5414 25.7124 23.9909 25.7556 23.4781 25.9412C22.9653 26.1268 22.508 26.4357 22.1062 26.8678C21.6418 27.3671 21.3326 27.9211 21.1784 28.5298C21.0332 29.1288 21.0598 29.7356 21.2584 30.35C21.4564 30.9458 21.8194 31.4893 22.3475 31.9805C22.8852 32.4805 23.4632 32.8121 24.0815 32.9752C24.6991 33.1197 25.3013 33.0979 25.8883 32.9096C26.4842 32.7116 27.0143 32.363 27.4786 31.8637C27.8804 31.4316 28.1553 30.9531 28.3032 30.4281C28.4512 29.9032 28.4543 29.3511 28.3127 28.7717L29.953 28.3364C30.2043 29.1251 30.2195 29.9271 29.9986 30.7423C29.777 31.539 29.3448 32.283 28.7019 32.9744Z" fill="white"/>
<path d="M39.2986 11.9751L44.3381 21.1004L42.6852 22.0132L38.4445 14.3342L34.5189 16.5021L35.5376 18.5908C36.1584 19.8507 36.6167 20.9382 36.9124 21.8534C37.2018 22.7571 37.2991 23.5572 37.2044 24.2536C37.1097 24.95 36.7352 25.4789 36.0809 25.8402C35.7825 26.005 35.4153 26.1403 34.9795 26.2462L34.3126 24.7946C34.4808 24.7466 34.6281 24.6877 34.7544 24.618C35.2135 24.3645 35.4469 23.9734 35.4546 23.4449C35.4623 22.9164 35.3485 22.3576 35.1131 21.7686C34.8777 21.1796 34.5066 20.3585 33.9998 19.3052L32.2911 15.845L39.2986 11.9751Z" fill="white"/>
<path d="M59.4946 5.98569L56.5802 18.1816C56.3323 19.3072 55.9501 20.1368 55.4336 20.6704C54.9301 21.2017 54.2648 21.5419 53.4376 21.6912C52.9336 21.7822 52.4272 21.7868 51.9182 21.7052C51.4246 21.6342 50.9943 21.4716 50.6274 21.2176L51.1669 19.679C51.789 20.0872 52.4489 20.2283 53.1468 20.1023C53.5992 20.0207 53.9515 19.8303 54.2038 19.5312C54.4714 19.2427 54.6748 18.7857 54.8139 18.16L55.0123 17.3836L48.5999 7.952L50.5385 7.60212L55.6285 15.1706L57.6723 6.31457L59.4946 5.98569Z" fill="white"/>
<path d="M84.8698 8.44465L82.5759 18.6267L68.0665 15.3805L70.3603 5.19849L72.2052 5.61124L70.275 14.1795L74.7719 15.1856L76.7022 6.61734L78.5471 7.03009L76.6168 15.5984L81.0946 16.6002L83.0248 8.03189L84.8698 8.44465Z" fill="white"/>
<path d="M100.894 16.3962C102.066 17.2392 102.752 18.1695 102.953 19.1872C103.165 20.2125 102.858 21.2931 102.032 22.4289L98.327 27.524L96.8726 26.4779L97.6831 25.3633C97.1418 25.5722 96.5542 25.6103 95.9203 25.4777C95.3048 25.3422 94.6721 25.0407 94.0221 24.5733C93.0738 23.8912 92.478 23.1151 92.2345 22.2448C92.0017 21.3822 92.1555 20.5794 92.6958 19.8363C93.2362 19.0933 93.9402 18.6943 94.8078 18.6393C95.6831 18.5737 96.7121 18.9662 97.8948 19.8169L100.324 21.5642L100.544 21.2616C101.023 20.6035 101.198 19.9614 101.069 19.3352C100.94 18.709 100.503 18.1277 99.7567 17.5913C99.256 17.2311 98.7041 16.9635 98.1011 16.7885C97.5058 16.6028 96.9427 16.5292 96.4117 16.5676L96.606 14.9614C97.2976 14.9253 98.0127 15.0355 98.7513 15.2919C99.4976 15.5376 100.212 15.9057 100.894 16.3962ZM95.1347 23.5789C95.7207 24.0004 96.3195 24.2371 96.9309 24.2889C97.5501 24.33 98.1293 24.1807 98.6684 23.841L99.5253 22.6628L97.1598 20.9615C95.8599 20.0265 94.8935 19.9943 94.2605 20.8647C93.9517 21.2893 93.8737 21.7424 94.0265 22.2241C94.1793 22.7059 94.5487 23.1575 95.1347 23.5789Z" fill="white"/>
<path d="M112.859 27.0878L113.927 28.6416L107.672 32.9241L117.541 33.9019L118.508 35.31L109.92 41.19L108.853 39.6362L115.107 35.3538L105.25 34.3922L104.271 32.9679L112.859 27.0878ZM116.735 30.3363C116.186 29.5378 115.949 28.7879 116.023 28.0866C116.108 27.378 116.509 26.7705 117.225 26.2641L117.948 27.3162C117.556 27.6006 117.324 27.9574 117.254 28.3865C117.201 28.819 117.327 29.2564 117.631 29.6988C117.935 30.1412 118.298 30.4159 118.721 30.523C119.155 30.6226 119.576 30.541 119.983 30.2781L120.728 31.3625C119.997 31.8473 119.281 31.9962 118.581 31.8093C117.891 31.615 117.276 31.124 116.735 30.3363Z" fill="white"/>
<path d="M124.447 54.1081L123.385 50.4392L114.936 52.8308L114.411 51.0153L122.86 48.6237L121.798 44.9548L123.389 44.5044L126.039 53.6577L124.447 54.1081Z" fill="white"/>
<path d="M122.116 71.3931C121.972 71.3914 121.782 71.3761 121.545 71.3472L121.646 62.8753C120.725 62.9831 119.978 63.3754 119.405 64.052C118.846 64.7419 118.559 65.5991 118.547 66.6236C118.532 67.8714 118.941 68.881 119.772 69.6523L118.538 70.6827C117.992 70.2036 117.579 69.6078 117.299 68.8953C117.018 68.1959 116.883 67.4127 116.893 66.5458C116.906 65.4425 117.141 64.4665 117.598 63.6178C118.068 62.7692 118.713 62.1131 119.533 61.6494C120.352 61.1989 121.275 60.9794 122.299 60.991C123.31 61.0024 124.221 61.236 125.03 61.6918C125.839 62.1607 126.462 62.7917 126.899 63.5848C127.349 64.3912 127.568 65.2936 127.556 66.2918C127.545 67.29 127.304 68.174 126.835 68.9438C126.379 69.7268 125.742 70.3305 124.922 70.7548C124.102 71.1921 123.167 71.4049 122.116 71.3931ZM125.961 66.2738C125.971 65.3675 125.704 64.6026 125.16 63.979C124.616 63.3686 123.897 63.0058 123.006 62.8906L122.926 69.5894C123.807 69.4942 124.527 69.1411 125.086 68.53C125.658 67.9321 125.95 67.1801 125.961 66.2738Z" fill="white"/>
<path d="M110.36 100.133L111.708 98.4427L108.243 95.7274L109.419 94.2523L117.616 100.677L116.44 102.152L112.976 99.4366L111.604 101.158L112.962 106.516L111.7 108.098L110.218 101.919L103.332 101.889L104.716 100.153L110.36 100.133Z" fill="white"/>
<path d="M95.1641 108.771C96.0313 108.202 96.9366 107.883 97.8801 107.814C98.8235 107.745 99.7123 107.916 100.546 108.326C101.377 108.755 102.073 109.398 102.634 110.254C103.195 111.11 103.503 111.999 103.558 112.921C103.609 113.86 103.411 114.743 102.964 115.57C102.524 116.408 101.871 117.111 101.004 117.679C100.136 118.248 99.2365 118.563 98.304 118.625C97.3678 118.705 96.4845 118.53 95.6541 118.102C94.8199 117.691 94.1222 117.058 93.5609 116.201C92.9996 115.345 92.6935 114.447 92.6426 113.508C92.5878 112.586 92.7803 111.707 93.2201 110.869C93.6488 110.039 94.2968 109.339 95.1641 108.771ZM96.0707 110.154C95.5109 110.521 95.0942 110.975 94.8206 111.515C94.5432 112.073 94.4294 112.666 94.4791 113.292C94.536 113.93 94.7624 114.551 95.1582 115.154C95.554 115.758 96.0292 116.208 96.5839 116.503C97.1458 116.81 97.7346 116.942 98.3502 116.899C98.9548 116.864 99.537 116.663 100.097 116.296C100.657 115.929 101.079 115.472 101.364 114.924C101.637 114.384 101.751 113.791 101.705 113.147C101.655 112.52 101.432 111.905 101.037 111.301C100.641 110.697 100.162 110.242 99.6002 109.936C99.0345 109.647 98.4457 109.515 97.8339 109.54C97.2183 109.582 96.6306 109.787 96.0707 110.154Z" fill="white"/>
<path d="M79.3124 115.949C80.3413 115.685 81.3192 115.672 82.246 115.908C83.1601 116.148 83.9449 116.597 84.6006 117.255C85.2595 117.925 85.7158 118.756 85.9695 119.747C86.2231 120.737 86.2205 121.679 85.9616 122.571C85.7059 123.475 85.2332 124.246 84.5435 124.883C83.8444 125.536 82.9803 125.994 81.9514 126.257C81.0368 126.491 80.1767 126.515 79.371 126.329C78.5527 126.146 77.8572 125.755 77.2845 125.158L78.4462 123.906C78.8873 124.307 79.3738 124.569 79.9056 124.69C80.4374 124.811 80.9891 124.798 81.5607 124.652C82.2213 124.483 82.7809 124.184 83.2396 123.755C83.6856 123.329 83.9911 122.805 84.1562 122.18C84.3117 121.572 84.3001 120.918 84.1212 120.22C83.9391 119.508 83.6321 118.917 83.2001 118.446C82.7586 117.99 82.2401 117.683 81.6445 117.524C81.0362 117.369 80.4018 117.375 79.7412 117.545C79.1696 117.691 78.6797 117.945 78.2715 118.307C77.8633 118.668 77.5622 119.131 77.3682 119.695L75.7528 119.175C75.9678 118.375 76.3885 117.692 77.015 117.126C77.632 116.575 78.3978 116.183 79.3124 115.949Z" fill="white"/>
<path d="M55.1253 127.341L56.3 116.983L58.0003 117.176L57.1426 124.739L61.7369 118.787L62.5577 118.881L65.6612 125.725L66.5211 118.142L68.2409 118.337L67.0663 128.695L65.1315 128.476L61.86 121.018L56.8842 127.541L55.1253 127.341Z" fill="white"/>
<path d="M43.421 112.286C44.3327 112.778 45.043 113.422 45.5521 114.218C46.0611 115.015 46.3335 115.877 46.3691 116.805C46.3869 117.738 46.153 118.655 45.6674 119.555C45.1817 120.455 44.547 121.148 43.7633 121.634C42.9618 122.126 42.0917 122.371 41.153 122.371C40.2081 122.383 39.2798 122.143 38.3682 121.651C37.4566 121.159 36.752 120.518 36.2544 119.728C35.7391 118.943 35.4726 118.084 35.4547 117.151C35.4191 116.223 35.6442 115.309 36.1298 114.409C36.6155 113.509 37.2591 112.813 38.0605 112.322C38.8442 111.836 39.7086 111.587 40.6535 111.575C41.5869 111.557 42.5094 111.795 43.421 112.286ZM42.6365 113.74C42.048 113.423 41.4513 113.272 40.8465 113.289C40.2239 113.31 39.6492 113.492 39.1223 113.833C38.5891 114.186 38.1513 114.68 37.8088 115.315C37.4664 115.949 37.2971 116.581 37.301 117.209C37.2987 117.848 37.4625 118.428 37.7924 118.949C38.1108 119.463 38.5642 119.879 39.1527 120.197C39.7413 120.514 40.3437 120.668 40.96 120.658C41.5648 120.642 42.1396 120.46 42.6843 120.113C43.2112 119.772 43.6459 119.284 43.9883 118.649C44.3308 118.014 44.5032 117.377 44.5055 116.738C44.4901 116.104 44.3263 115.524 44.0141 114.998C43.6842 114.477 43.225 114.058 42.6365 113.74Z" fill="white"/>
<path d="M29.5351 101.884C30.2581 102.662 30.7374 103.514 30.9729 104.441C31.1995 105.358 31.1809 106.262 30.917 107.153C30.6435 108.052 30.1325 108.85 29.3842 109.547C28.6358 110.243 27.8083 110.691 26.9016 110.891C25.9854 111.099 25.083 111.052 24.1944 110.751C23.2872 110.45 22.4721 109.91 21.749 109.132C21.1063 108.441 20.6741 107.697 20.4524 106.901C20.2218 106.095 20.232 105.297 20.483 104.508L22.1369 104.93C21.9955 105.509 21.9988 106.061 22.1468 106.586C22.2948 107.111 22.5696 107.59 22.9713 108.021C23.4355 108.521 23.9654 108.869 24.5611 109.067C25.1477 109.255 25.7545 109.272 26.3813 109.118C26.9896 108.964 27.5576 108.641 28.0853 108.15C28.6226 107.65 28.9949 107.097 29.2021 106.493C29.3908 105.887 29.4125 105.285 29.2672 104.686C29.113 104.077 28.8037 103.523 28.3395 103.024C27.9378 102.592 27.4807 102.284 26.9681 102.098C26.4555 101.913 25.9053 101.87 25.3175 101.969L25.002 100.302C25.8065 100.108 26.607 100.151 27.4037 100.43C28.1819 100.708 28.8923 101.193 29.5351 101.884Z" fill="white"/>
</svg>
