<svg width="132" height="133" viewBox="0 0 132 133" fill="none" xmlns="http://www.w3.org/2000/svg"><path fill-rule="evenodd" clip-rule="evenodd" d="M40 62.04L49.04 53l17.018 17.018L83.076 53l9.04 9.04-25.948 25.95-.11-.11-.11.11L40 62.04z" fill="#C9EF5D"/><path d="M5.393 59.479l10.398.741-.134 1.884-8.75-.624-.418 5.866 8.75.624-.135 1.883-10.398-.742.687-9.632zm14.011-11.822c-.427.945-1.02 1.701-1.78 2.268a5.134 5.134 0 01-2.53 1.009c-.933.088-1.867-.076-2.802-.492-.936-.416-1.675-.996-2.217-1.74a4.866 4.866 0 01-.925-2.544c-.08-.94.094-1.882.52-2.827.427-.945 1.018-1.695 1.773-2.25a4.817 4.817 0 012.521-.991c.926-.106 1.857.05 2.793.465.935.416 1.677 1.005 2.227 1.766.542.744.853 1.586.933 2.526.084.928-.087 1.865-.513 2.81zm-1.512-.672c.276-.61.384-1.215.324-1.816a3.303 3.303 0 00-.669-1.677c-.391-.504-.917-.903-1.576-1.196-.66-.293-1.304-.414-1.932-.363a3.192 3.192 0 00-1.706.62c-.492.356-.876.84-1.151 1.45a3.624 3.624 0 00-.332 1.834c.06.601.283 1.16.669 1.676.38.5.899.895 1.559 1.189.66.293 1.31.417 1.95.37a3.553 3.553 0 001.705-.62 3.653 3.653 0 001.16-1.467zm10.81-14.011c-.723.778-1.539 1.318-2.446 1.62a5.084 5.084 0 01-2.71.14c-.916-.208-1.749-.66-2.498-1.356-.749-.697-1.255-1.49-1.52-2.38a4.903 4.903 0 01-.056-2.712c.235-.928.714-1.78 1.438-2.558.643-.691 1.353-1.176 2.132-1.455a4.05 4.05 0 012.388-.142l-.3 1.68a3.209 3.209 0 00-1.652.13c-.513.186-.97.495-1.372.927a3.784 3.784 0 00-.928 1.662 3.292 3.292 0 00.08 1.82c.198.596.561 1.14 1.09 1.63.537.5 1.115.832 1.733.995.618.145 1.22.123 1.807-.065a3.786 3.786 0 001.59-1.046c.402-.432.677-.91.825-1.436a3.207 3.207 0 00.01-1.656l1.64-.436c.251.79.267 1.591.046 2.406-.222.797-.654 1.541-1.297 2.232zm10.597-20.999l5.04 9.125-1.654.913-4.24-7.679-3.926 2.168 1.019 2.089c.62 1.26 1.079 2.347 1.374 3.262.29.904.387 1.704.292 2.4-.094.697-.469 1.226-1.123 1.587-.299.165-.666.3-1.102.406l-.666-1.451a2.09 2.09 0 00.441-.177c.46-.253.693-.645.7-1.173.008-.529-.105-1.087-.34-1.676A42.474 42.474 0 0034 19.305l-1.709-3.46 7.008-3.87zm20.196-5.989L56.58 18.182c-.248 1.125-.63 1.955-1.146 2.488-.504.532-1.17.872-1.996 1.021a4.49 4.49 0 01-1.52.014 2.977 2.977 0 01-1.29-.487l.539-1.539c.622.408 1.282.55 1.98.423.452-.081.805-.272 1.057-.57.267-.29.47-.746.61-1.372l.198-.776L48.6 7.952l1.938-.35 5.09 7.569 2.044-8.856 1.823-.33zM84.87 8.445l-2.294 10.182-14.51-3.246L70.36 5.197l1.845.413-1.93 8.569 4.497 1.006 1.93-8.569 1.845.413-1.93 8.568 4.478 1.002 1.93-8.568 1.845.413zm16.024 7.951c1.172.843 1.858 1.773 2.059 2.791.212 1.025-.095 2.106-.921 3.242l-3.705 5.095-1.454-1.046.81-1.115c-.541.21-1.129.247-1.763.115-.615-.136-1.248-.437-1.898-.905-.948-.682-1.544-1.458-1.788-2.328-.232-.863-.078-1.666.462-2.409.54-.743 1.244-1.142 2.112-1.197.875-.065 1.904.327 3.087 1.178l2.429 1.747.22-.302c.479-.659.654-1.3.525-1.927-.129-.626-.566-1.207-1.312-1.744a5.38 5.38 0 00-1.656-.803c-.595-.185-1.158-.259-1.69-.22l.195-1.607c.692-.036 1.407.075 2.145.33a7.929 7.929 0 012.143 1.105zm-5.76 7.183c.587.421 1.186.658 1.797.71a2.833 2.833 0 001.737-.448l.857-1.178-2.365-1.701c-1.3-.936-2.266-.968-2.9-.097-.308.424-.386.877-.234 1.36.153.48.523.932 1.109 1.354zm17.725 3.509l1.068 1.554-6.255 4.282 9.869.978.967 1.408-8.588 5.88-1.067-1.554 6.254-4.282-9.857-.962-.979-1.424 8.588-5.88zm3.876 3.248c-.549-.798-.786-1.548-.712-2.25.085-.708.486-1.316 1.202-1.822l.723 1.052c-.392.285-.624.641-.694 1.07-.053.433.073.87.377 1.313.304.442.667.717 1.09.824.434.1.855.018 1.262-.245l.745 1.085c-.731.484-1.447.633-2.147.446-.69-.194-1.305-.685-1.846-1.473zm7.712 23.772l-1.062-3.669-8.449 2.392-.525-1.816 8.449-2.391-1.062-3.67 1.591-.45 2.65 9.154-1.592.45zm-2.331 17.285a5.481 5.481 0 01-.571-.046l.101-8.472c-.921.108-1.668.5-2.241 1.177-.559.69-.846 1.547-.858 2.572-.015 1.247.394 2.257 1.225 3.028l-1.234 1.03a4.55 4.55 0 01-1.239-1.787c-.281-.7-.416-1.482-.406-2.35.013-1.103.248-2.079.705-2.927a4.986 4.986 0 011.935-1.969c.819-.45 1.742-.67 2.766-.658 1.011.011 1.922.245 2.731.7a4.882 4.882 0 011.869 1.894c.45.806.669 1.709.657 2.707-.011.998-.252 1.882-.721 2.652a4.625 4.625 0 01-1.913 1.81c-.82.438-1.755.65-2.806.64zm3.845-5.12c.01-.905-.257-1.67-.801-2.294-.544-.61-1.263-.973-2.154-1.088l-.08 6.698c.881-.095 1.601-.448 2.16-1.059.572-.598.864-1.35.875-2.256zm-15.601 33.86l1.348-1.69-3.465-2.716 1.176-1.475 8.197 6.425-1.176 1.475-3.464-2.715-1.372 1.721 1.358 5.358-1.262 1.582-1.482-6.179-6.886-.03 1.384-1.736 5.644-.02zm-15.196 8.638c.867-.569 1.773-.888 2.716-.957a5.094 5.094 0 012.666.512c.831.429 1.527 1.072 2.088 1.928.561.856.869 1.745.924 2.667a4.909 4.909 0 01-.594 2.649c-.44.838-1.093 1.541-1.96 2.109-.868.569-1.767.884-2.7.946a4.784 4.784 0 01-2.65-.523c-.834-.411-1.532-1.044-2.093-1.901-.561-.856-.868-1.754-.918-2.693a4.948 4.948 0 01.577-2.639c.429-.83 1.077-1.53 1.944-2.098zm.907 1.383c-.56.367-.977.821-1.25 1.361a3.33 3.33 0 00-.342 1.777c.057.638.283 1.259.68 1.862.395.604.87 1.054 1.425 1.349.562.307 1.15.439 1.766.396.605-.035 1.187-.236 1.747-.603s.982-.824 1.267-1.372a3.34 3.34 0 00.341-1.777c-.05-.627-.273-1.242-.668-1.846-.396-.604-.875-1.059-1.437-1.365a3.51 3.51 0 00-1.766-.396 3.632 3.632 0 00-1.763.614zm-16.759 5.795c1.03-.264 2.007-.277 2.934-.041a5.09 5.09 0 012.355 1.347c.659.67 1.115 1.501 1.368 2.492.254.99.252 1.932-.007 2.824a4.908 4.908 0 01-1.419 2.312c-.699.653-1.563 1.111-2.592 1.374-.914.234-1.774.258-2.58.072a4.056 4.056 0 01-2.087-1.171l1.162-1.252c.441.401.928.663 1.46.784a3.483 3.483 0 001.655-.038 3.781 3.781 0 001.679-.897 3.29 3.29 0 00.916-1.575c.156-.608.144-1.262-.035-1.96-.182-.712-.489-1.303-.92-1.774a3.325 3.325 0 00-1.556-.922 3.782 3.782 0 00-1.904.021 3.47 3.47 0 00-1.47.762 3.203 3.203 0 00-.903 1.388l-1.615-.52a4.17 4.17 0 011.262-2.049c.617-.551 1.383-.943 2.297-1.177zm-24.187 11.392l1.175-10.358 1.7.193-.857 7.563 4.594-5.952.82.094 3.104 6.844.86-7.583 1.72.195-1.175 10.358-1.934-.219-3.272-7.458-4.976 6.523-1.759-.2zm-11.704-15.055c.912.492 1.622 1.136 2.131 1.932a5.09 5.09 0 01.817 2.587c.018.933-.216 1.85-.702 2.75-.485.9-1.12 1.593-1.904 2.079a4.897 4.897 0 01-2.61.737c-.945.012-1.873-.228-2.785-.72-.911-.492-1.616-1.133-2.114-1.923a4.774 4.774 0 01-.8-2.577c-.035-.928.19-1.842.676-2.742.485-.9 1.13-1.596 1.93-2.087a4.947 4.947 0 012.593-.747c.934-.018 1.856.22 2.768.711zm-.785 1.454c-.588-.317-1.185-.468-1.79-.451a3.325 3.325 0 00-1.724.544c-.533.353-.97.847-1.313 1.482-.343.634-.512 1.266-.508 1.894a3.163 3.163 0 00.491 1.74c.319.514.772.93 1.36 1.248a3.641 3.641 0 001.808.461 3.328 3.328 0 001.724-.545c.527-.341.962-.829 1.304-1.464.343-.635.515-1.272.517-1.911a3.518 3.518 0 00-.49-1.74c-.33-.521-.79-.94-1.379-1.258zm-13.101-11.856c.723.778 1.202 1.63 1.438 2.557a5.088 5.088 0 01-.056 2.712c-.274.899-.785 1.697-1.533 2.394-.748.696-1.576 1.144-2.482 1.344a4.9 4.9 0 01-2.708-.14c-.907-.301-1.722-.841-2.445-1.619-.643-.691-1.075-1.435-1.297-2.231a4.053 4.053 0 01.031-2.393l1.654.422a3.208 3.208 0 00.01 1.656 3.47 3.47 0 00.824 1.435c.465.5.994.848 1.59 1.046a3.286 3.286 0 001.82.051c.609-.154 1.177-.477 1.704-.968.538-.5.91-1.053 1.117-1.657a3.33 3.33 0 00.065-1.807 3.783 3.783 0 00-.927-1.662 3.48 3.48 0 00-1.372-.926 3.214 3.214 0 00-1.65-.129l-.316-1.667a4.167 4.167 0 012.402.128c.778.278 1.488.763 2.131 1.454z" fill="#fff"/></svg>